<svg width="120" height="120" viewBox="0 0 120 120" fill="none" xmlns="http://www.w3.org/2000/svg">
<mask id="path-1-inside-1" fill="white">
<path fill-rule="evenodd" clip-rule="evenodd" d="M77.5736 17.5736L60 0L42.4264 17.5736H17.5736V42.4264L0 60L17.5736 77.5736V102.426H42.4264L60 120L77.5736 102.426H102.426V77.5736L120 60L102.426 42.4264V17.5736H77.5736Z"/>
</mask>
<path d="M60 0L65.6568 -5.65685L60 -11.3137L54.3431 -5.65685L60 0ZM77.5736 17.5736L71.9167 23.2305L74.2599 25.5736H77.5736V17.5736ZM42.4264 17.5736V25.5736H45.7401L48.0832 23.2305L42.4264 17.5736ZM17.5736 17.5736V9.5736H9.57359V17.5736H17.5736ZM17.5736 42.4264L23.2304 48.0833L25.5736 45.7401V42.4264H17.5736ZM0 60L-5.65685 54.3432L-11.3137 60L-5.65686 65.6569L0 60ZM17.5736 77.5736H25.5736V74.2599L23.2304 71.9167L17.5736 77.5736ZM17.5736 102.426H9.57359V110.426H17.5736V102.426ZM42.4264 102.426L48.0833 96.7696L45.7401 94.4264H42.4264V102.426ZM60 120L54.3431 125.657L60 131.314L65.6568 125.657L60 120ZM77.5736 102.426V94.4264H74.2599L71.9167 96.7696L77.5736 102.426ZM102.426 102.426V110.426H110.426V102.426H102.426ZM102.426 77.5736L96.7695 71.9167L94.4264 74.2599V77.5736H102.426ZM120 60L125.657 65.6569L131.314 60L125.657 54.3432L120 60ZM102.426 42.4264H94.4264V45.7401L96.7695 48.0833L102.426 42.4264ZM102.426 17.5736H110.426V9.5736H102.426V17.5736ZM54.3431 5.65685L71.9167 23.2305L83.2304 11.9168L65.6568 -5.65685L54.3431 5.65685ZM48.0832 23.2305L65.6568 5.65685L54.3431 -5.65685L36.7695 11.9168L48.0832 23.2305ZM17.5736 25.5736H42.4264V9.5736H17.5736V25.5736ZM25.5736 42.4264V17.5736H9.57359V42.4264H25.5736ZM5.65685 65.6569L23.2304 48.0833L11.9167 36.7696L-5.65685 54.3432L5.65685 65.6569ZM23.2304 71.9167L5.65686 54.3432L-5.65686 65.6569L11.9167 83.2305L23.2304 71.9167ZM25.5736 102.426V77.5736H9.57359V102.426H25.5736ZM42.4264 94.4264H17.5736V110.426H42.4264V94.4264ZM65.6568 114.343L48.0833 96.7696L36.7696 108.083L54.3431 125.657L65.6568 114.343ZM71.9167 96.7696L54.3431 114.343L65.6568 125.657L83.2304 108.083L71.9167 96.7696ZM102.426 94.4264H77.5736V110.426H102.426V94.4264ZM94.4264 77.5736V102.426H110.426V77.5736H94.4264ZM114.343 54.3432L96.7695 71.9167L108.083 83.2304L125.657 65.6569L114.343 54.3432ZM96.7695 48.0833L114.343 65.6569L125.657 54.3432L108.083 36.7696L96.7695 48.0833ZM94.4264 17.5736V42.4264H110.426V17.5736H94.4264ZM77.5736 25.5736H102.426V9.5736H77.5736V25.5736Z" fill="black" mask="url(#path-1-inside-1)"/>
</svg>
