<svg width="1024" height="1024" viewBox="0 0 1024 1024" fill="none" xmlns="http://www.w3.org/2000/svg">
<g clip-path="url(#clip0)">
<path d="M512.484 511.922L324.739 -188.753L512.484 -244.548L512.484 511.922Z" fill="black"/>
<path d="M512.484 512.014L700.229 1212.69L512.484 1268.48L512.484 512.014Z" fill="black"/>
<path d="M512.507 511.928L700.252 -188.747L890.742 -143.194L512.507 511.928Z" fill="black"/>
<path d="M512.461 512.008L324.715 1212.68L134.226 1167.13L512.461 512.008Z" fill="black"/>
<path d="M512.524 511.945L1025.45 -0.98491L1167.65 133.71L512.524 511.945Z" fill="black"/>
<path d="M512.444 511.991L-0.485831 1024.92L-142.678 890.226L512.444 511.991Z" fill="black"/>
<path d="M512.53 511.968L1213.21 324.222L1269 511.968L512.53 511.968Z" fill="black"/>
<path d="M512.438 511.968L-188.238 699.713L-244.032 511.968L512.438 511.968Z" fill="black"/>
<path d="M512.523 511.991L1213.2 699.736L1167.65 890.226L512.523 511.991Z" fill="black"/>
<path d="M512.444 511.945L-188.231 324.2L-142.678 133.71L512.444 511.945Z" fill="black"/>
<path d="M512.507 512.008L1025.44 1024.94L890.742 1167.13L512.507 512.008Z" fill="black"/>
<path d="M512.461 511.928L-0.469273 -1.00193L134.226 -143.194L512.461 511.928Z" fill="black"/>
</g>
<defs>
<clipPath id="clip0">
<rect width="1024" height="1024" fill="white"/>
</clipPath>
</defs>
</svg>
