<svg width="1024" height="1024" viewBox="0 0 1024 1024" fill="none" xmlns="http://www.w3.org/2000/svg">
<circle cx="127.5" cy="125.5" r="33.5" fill="black"/>
<circle cx="545.5" cy="265.5" r="33.5" fill="black"/>
<circle cx="359.5" cy="158.5" r="33.5" fill="black"/>
<circle cx="111.5" cy="511.5" r="33.5" fill="black"/>
<circle cx="443.5" cy="431.5" r="33.5" fill="black"/>
<circle cx="304.5" cy="863.5" r="33.5" fill="black"/>
<circle cx="705.5" cy="599.5" r="33.5" fill="black"/>
<circle cx="727.5" cy="786.5" r="33.5" fill="black"/>
<circle cx="545.5" cy="721.5" r="33.5" fill="black"/>
<circle cx="33.5" cy="353.5" r="33.5" fill="black"/>
<circle cx="44.5" cy="975.5" r="33.5" fill="black"/>
<circle cx="933.5" cy="603.5" r="33.5" fill="black"/>
<circle cx="512.5" cy="942.5" r="33.5" fill="black"/>
<circle cx="912.5" cy="353.5" r="33.5" fill="black"/>
<circle cx="799.5" cy="138.5" r="33.5" fill="black"/>
<circle cx="233.5" cy="298.5" r="55.5" fill="black"/>
<circle cx="304.5" cy="632.5" r="55.5" fill="black"/>
<circle cx="727.5" cy="397.5" r="55.5" fill="black"/>
<circle cx="567.5" cy="55.5" r="55.5" fill="black"/>
<circle cx="878.5" cy="875.5" r="55.5" fill="black"/>
</svg>
