<svg width="1024" height="1024" viewBox="0 0 1024 1024" fill="none" xmlns="http://www.w3.org/2000/svg">
<rect width="109.93" height="109.93" transform="matrix(0.868079 0.496426 -0.868079 0.496426 219.572 222)" fill="black"/>
<rect width="137.415" height="137.415" transform="matrix(0.389334 0.921097 -0.389334 0.921097 219.572 150)" fill="black"/>
<rect width="138.157" height="138.157" transform="matrix(0.868079 0.496426 -0.868079 0.496426 511.931 493.488)" fill="black"/>
<rect width="172.699" height="172.699" transform="matrix(0.389334 0.921097 -0.389334 0.921097 511.931 403)" fill="black"/>
<rect width="53.4764" height="53.4764" transform="matrix(0.868079 0.496426 -0.868079 0.496426 702.422 214.025)" fill="black"/>
<rect width="66.8465" height="66.8465" transform="matrix(0.389334 0.921097 -0.389334 0.921097 702.422 179)" fill="black"/>
<rect width="53.4764" height="53.4764" transform="matrix(0.868079 0.496426 -0.868079 0.496426 66.4219 75.0254)" fill="black"/>
<rect width="66.8465" height="66.8465" transform="matrix(0.389334 0.921097 -0.389334 0.921097 66.4219 40)" fill="black"/>
<rect width="53.4764" height="53.4764" transform="matrix(0.868079 0.496426 -0.868079 0.496426 392.422 376.025)" fill="black"/>
<rect width="66.8465" height="66.8465" transform="matrix(0.389334 0.921097 -0.389334 0.921097 392.422 341)" fill="black"/>
<rect width="53.4764" height="53.4764" transform="matrix(0.868079 0.496426 -0.868079 0.496426 226.422 694.025)" fill="black"/>
<rect width="66.8465" height="66.8465" transform="matrix(0.389334 0.921097 -0.389334 0.921097 226.422 659)" fill="black"/>
<rect width="53.4764" height="53.4764" transform="matrix(0.868079 0.496426 -0.868079 0.496426 748.422 866.025)" fill="black"/>
<rect width="66.8465" height="66.8465" transform="matrix(0.389334 0.921097 -0.389334 0.921097 748.422 831)" fill="black"/>
<rect width="53.4764" height="53.4764" transform="matrix(0.868079 0.496426 -0.868079 0.496426 912.422 708.025)" fill="black"/>
<rect width="66.8465" height="66.8465" transform="matrix(0.389334 0.921097 -0.389334 0.921097 912.422 673)" fill="black"/>
<rect width="84.3087" height="84.3087" transform="matrix(0.868079 0.496426 -0.868079 0.496426 852.657 477.22)" fill="black"/>
<rect width="105.388" height="105.388" transform="matrix(0.389334 0.921097 -0.389334 0.921097 852.656 422)" fill="black"/>
<rect width="84.3087" height="84.3087" transform="matrix(0.868079 0.496426 -0.868079 0.496426 465.187 108.22)" fill="black"/>
<rect width="105.388" height="105.388" transform="matrix(0.389334 0.921097 -0.389334 0.921097 465.186 53)" fill="black"/>
<rect width="84.3087" height="84.3087" transform="matrix(0.868079 0.496426 -0.868079 0.496426 346.187 851.22)" fill="black"/>
<rect width="105.388" height="105.388" transform="matrix(0.389334 0.921097 -0.389334 0.921097 346.186 796)" fill="black"/>
<rect width="84.3087" height="84.3087" transform="matrix(0.868079 0.496426 -0.868079 0.496426 939.187 102.22)" fill="black"/>
<rect width="105.388" height="105.388" transform="matrix(0.389334 0.921097 -0.389334 0.921097 939.186 47)" fill="black"/>
<rect width="84.3087" height="84.3087" transform="matrix(0.868079 0.496426 -0.868079 0.496426 93.1865 789.22)" fill="black"/>
<rect width="105.388" height="105.388" transform="matrix(0.389334 0.921097 -0.389334 0.921097 93.186 734)" fill="black"/>
</svg>
