<svg width="16" height="16" viewBox="0 0 16 16" fill="none" xmlns="http://www.w3.org/2000/svg">
<path d="M3.93731 8C3.93731 10.6278 3.07903 12.0313 2.52097 12.6765C2.20662 12.9896 2.00883 13.1635 2 13.1722L2.64283 13.9983C2.67108 13.9791 2.90243 13.807 3.20088 13.4887C4.14746 12.567 6.23488 10.3339 7.47108 7.33913V13.5652H8.53069C8.53069 10.64 9.84283 8.0087 11.1815 6.08C11.079 6.65565 11.0031 7.27478 11.0031 8C11.0031 12.4035 13.2618 13.9357 13.3589 14L13.9506 13.1339C13.8728 13.0817 12.0627 11.8035 12.0627 8C12.0627 5.37217 12.921 3.9687 13.479 3.32348C13.7934 3.01043 13.9912 2.83652 14 2.82783L13.3554 2C13.3272 2.01913 13.0958 2.1913 12.7974 2.50957C11.8508 3.4313 9.76336 5.66435 8.52715 8.65913C8.52715 8.55652 8.52715 2.43478 8.52715 2.43478H7.46755C7.46755 5.36 6.15541 7.9913 4.81678 9.92C4.91921 9.34435 4.99514 8.72522 4.99514 8C4.99691 3.59652 2.73642 2.06261 2.64106 2L2.04945 2.86609C2.12715 2.91826 3.93731 4.19478 3.93731 8Z" fill="#231F20"/>
</svg>
